<mxfile host="Electron" agent="Mozilla/5.0 (Windows NT 10.0; Win64; x64) AppleWebKit/537.36 (KHTML, like Gecko) draw.io/24.7.8 Chrome/128.0.6613.36 Electron/32.0.1 Safari/537.36" version="24.7.8">
  <diagram name="Page-1" id="etkjrMM6Y55DAy7aysuk">
    <mxGraphModel dx="1434" dy="836" grid="1" gridSize="10" guides="1" tooltips="1" connect="1" arrows="1" fold="1" page="1" pageScale="1" pageWidth="850" pageHeight="1100" math="0" shadow="0">
      <root>
        <mxCell id="0" />
        <mxCell id="1" parent="0" />
        <mxCell id="8m5WmUQIKgXVRDmDLA1q-1" value="" style="rounded=0;whiteSpace=wrap;html=1;snapToPoint=1;arcSize=12;" vertex="1" parent="1">
          <mxGeometry x="320" y="80" width="120" height="200" as="geometry" />
        </mxCell>
        <mxCell id="8m5WmUQIKgXVRDmDLA1q-2" value="UL&lt;sub&gt;1&lt;/sub&gt;" style="text;html=1;align=center;verticalAlign=middle;resizable=1;points=[];autosize=1;strokeColor=none;fillColor=none;strokeWidth=1;" vertex="1" parent="1">
          <mxGeometry x="210" y="130" width="30" height="10" as="geometry" />
        </mxCell>
        <mxCell id="8m5WmUQIKgXVRDmDLA1q-3" value="" style="endArrow=none;html=1;rounded=0;" edge="1" parent="1">
          <mxGeometry width="50" height="50" relative="1" as="geometry">
            <mxPoint x="240" y="110" as="sourcePoint" />
            <mxPoint x="320" y="110.24" as="targetPoint" />
          </mxGeometry>
        </mxCell>
        <mxCell id="8m5WmUQIKgXVRDmDLA1q-4" value="L" style="text;html=1;align=center;verticalAlign=middle;resizable=1;points=[];autosize=1;strokeColor=none;fillColor=none;strokeWidth=1;" vertex="1" parent="1">
          <mxGeometry x="210" y="95" width="30" height="30" as="geometry" />
        </mxCell>
        <mxCell id="8m5WmUQIKgXVRDmDLA1q-5" value="UL" style="text;html=1;align=center;verticalAlign=middle;resizable=1;points=[];autosize=1;strokeColor=none;fillColor=none;strokeWidth=1;" vertex="1" parent="1">
          <mxGeometry x="200" y="140" width="40" height="20" as="geometry" />
        </mxCell>
        <mxCell id="8m5WmUQIKgXVRDmDLA1q-6" value="P&lt;sub&gt;1,0&lt;/sub&gt;" style="text;html=1;align=center;verticalAlign=middle;resizable=1;points=[];autosize=1;strokeColor=none;fillColor=none;" vertex="1" parent="1">
          <mxGeometry x="310" y="95" width="50" height="30" as="geometry" />
        </mxCell>
        <mxCell id="8m5WmUQIKgXVRDmDLA1q-7" value="P&lt;sub&gt;1,1&lt;/sub&gt;" style="text;html=1;align=center;verticalAlign=middle;resizable=1;points=[];autosize=1;strokeColor=none;fillColor=none;" vertex="1" parent="1">
          <mxGeometry x="310" y="140" width="50" height="20" as="geometry" />
        </mxCell>
        <mxCell id="8m5WmUQIKgXVRDmDLA1q-8" value="P&lt;sub&gt;1,2&lt;/sub&gt;" style="text;html=1;align=center;verticalAlign=middle;resizable=1;points=[];autosize=1;strokeColor=none;fillColor=none;" vertex="1" parent="1">
          <mxGeometry x="310" y="200" width="50" height="20" as="geometry" />
        </mxCell>
        <mxCell id="8m5WmUQIKgXVRDmDLA1q-9" value="P&lt;sub&gt;1,3&lt;/sub&gt;" style="text;html=1;align=center;verticalAlign=middle;resizable=1;points=[];autosize=1;strokeColor=none;fillColor=none;" vertex="1" parent="1">
          <mxGeometry x="310" y="235" width="50" height="30" as="geometry" />
        </mxCell>
        <mxCell id="8m5WmUQIKgXVRDmDLA1q-10" value="Master&lt;div&gt;SoC&lt;/div&gt;" style="text;html=1;align=center;verticalAlign=middle;resizable=0;points=[];autosize=1;strokeColor=none;fillColor=none;" vertex="1" parent="1">
          <mxGeometry x="350" y="160" width="60" height="40" as="geometry" />
        </mxCell>
        <mxCell id="8m5WmUQIKgXVRDmDLA1q-11" value="" style="verticalLabelPosition=bottom;shadow=0;dashed=0;align=center;html=1;verticalAlign=top;shape=mxgraph.electrical.logic_gates.logic_gate;operation=and;numInputs=3;" vertex="1" parent="1">
          <mxGeometry x="240" y="130" width="80" height="40" as="geometry" />
        </mxCell>
        <mxCell id="8m5WmUQIKgXVRDmDLA1q-12" value="" style="verticalLabelPosition=bottom;shadow=0;dashed=0;align=center;html=1;verticalAlign=top;shape=mxgraph.electrical.logic_gates.logic_gate;operation=and;" vertex="1" parent="1">
          <mxGeometry x="240" y="190" width="80" height="40" as="geometry" />
        </mxCell>
        <mxCell id="8m5WmUQIKgXVRDmDLA1q-13" value="UL&lt;sub&gt;2&lt;/sub&gt;" style="text;html=1;align=center;verticalAlign=middle;resizable=1;points=[];autosize=1;strokeColor=none;fillColor=none;strokeWidth=1;" vertex="1" parent="1">
          <mxGeometry x="210" y="160" width="30" height="10" as="geometry" />
        </mxCell>
        <mxCell id="8m5WmUQIKgXVRDmDLA1q-14" value="UL&lt;sub&gt;3&lt;/sub&gt;" style="text;html=1;align=center;verticalAlign=middle;resizable=1;points=[];autosize=1;strokeColor=none;fillColor=none;strokeWidth=1;" vertex="1" parent="1">
          <mxGeometry x="210" y="190" width="30" height="20" as="geometry" />
        </mxCell>
        <mxCell id="8m5WmUQIKgXVRDmDLA1q-15" value="UL&lt;sub&gt;4&lt;/sub&gt;" style="text;html=1;align=center;verticalAlign=middle;resizable=1;points=[];autosize=1;strokeColor=none;fillColor=none;strokeWidth=1;" vertex="1" parent="1">
          <mxGeometry x="210" y="210" width="30" height="20" as="geometry" />
        </mxCell>
        <mxCell id="8m5WmUQIKgXVRDmDLA1q-18" value="" style="endArrow=none;html=1;rounded=0;" edge="1" parent="1">
          <mxGeometry width="50" height="50" relative="1" as="geometry">
            <mxPoint x="240" y="250" as="sourcePoint" />
            <mxPoint x="320" y="250.00000000000006" as="targetPoint" />
          </mxGeometry>
        </mxCell>
        <mxCell id="8m5WmUQIKgXVRDmDLA1q-19" value="CL" style="text;html=1;align=center;verticalAlign=middle;resizable=0;points=[];autosize=1;strokeColor=none;fillColor=none;" vertex="1" parent="1">
          <mxGeometry x="205" y="235" width="40" height="30" as="geometry" />
        </mxCell>
        <mxCell id="8m5WmUQIKgXVRDmDLA1q-20" value="P&lt;sub&gt;1,5&lt;/sub&gt;" style="text;html=1;align=center;verticalAlign=middle;resizable=1;points=[];autosize=1;strokeColor=none;fillColor=none;" vertex="1" parent="1">
          <mxGeometry x="400" y="235" width="50" height="30" as="geometry" />
        </mxCell>
        <mxCell id="8m5WmUQIKgXVRDmDLA1q-21" value="P&lt;sub&gt;1,4&lt;/sub&gt;" style="text;html=1;align=center;verticalAlign=middle;resizable=1;points=[];autosize=1;strokeColor=none;fillColor=none;" vertex="1" parent="1">
          <mxGeometry x="400" y="195" width="50" height="30" as="geometry" />
        </mxCell>
        <mxCell id="8m5WmUQIKgXVRDmDLA1q-45" value="" style="verticalLabelPosition=bottom;shadow=0;dashed=0;align=center;html=1;verticalAlign=top;shape=mxgraph.electrical.transistors.nmos;pointerEvents=1;strokeWidth=1;" vertex="1" parent="1">
          <mxGeometry x="550" y="228" width="30" height="44" as="geometry" />
        </mxCell>
        <mxCell id="8m5WmUQIKgXVRDmDLA1q-46" value="" style="pointerEvents=1;verticalLabelPosition=bottom;shadow=0;dashed=0;align=center;html=1;verticalAlign=top;shape=mxgraph.electrical.signal_sources.protective_earth;strokeWidth=1;" vertex="1" parent="1">
          <mxGeometry x="569" y="270" width="20" height="15" as="geometry" />
        </mxCell>
        <mxCell id="8m5WmUQIKgXVRDmDLA1q-47" value="" style="verticalLabelPosition=bottom;shadow=0;dashed=0;align=center;html=1;verticalAlign=top;shape=mxgraph.electrical.opto_electronics.led_2;pointerEvents=1;direction=south;strokeWidth=1;" vertex="1" parent="1">
          <mxGeometry x="570" y="207" width="21" height="32" as="geometry" />
        </mxCell>
        <mxCell id="8m5WmUQIKgXVRDmDLA1q-48" value="" style="pointerEvents=1;verticalLabelPosition=bottom;shadow=0;dashed=0;align=center;html=1;verticalAlign=top;shape=mxgraph.electrical.resistors.resistor_2;direction=south;strokeWidth=1;" vertex="1" parent="1">
          <mxGeometry x="574" y="160" width="10" height="50" as="geometry" />
        </mxCell>
        <mxCell id="8m5WmUQIKgXVRDmDLA1q-49" value="V&lt;sub&gt;dd&lt;/sub&gt;" style="verticalLabelPosition=top;verticalAlign=bottom;shape=mxgraph.electrical.signal_sources.vdd;shadow=0;dashed=0;align=center;strokeWidth=1;fontSize=24;html=1;flipV=1;noLabel=1;" vertex="1" parent="1">
          <mxGeometry x="571" y="151" width="16" height="12" as="geometry" />
        </mxCell>
        <mxCell id="8m5WmUQIKgXVRDmDLA1q-50" value="V&lt;sub&gt;dd2&lt;/sub&gt;" style="text;html=1;align=center;verticalAlign=middle;resizable=0;points=[];autosize=1;strokeColor=none;fillColor=none;strokeWidth=1;" vertex="1" parent="1">
          <mxGeometry x="557" y="126" width="44" height="30" as="geometry" />
        </mxCell>
        <mxCell id="8m5WmUQIKgXVRDmDLA1q-51" value="" style="endArrow=none;html=1;rounded=0;entryX=0.5;entryY=0;entryDx=0;entryDy=0;entryPerimeter=0;exitX=0;exitY=0.5;exitDx=0;exitDy=0;exitPerimeter=0;strokeWidth=1;" edge="1" parent="1" source="8m5WmUQIKgXVRDmDLA1q-48" target="8m5WmUQIKgXVRDmDLA1q-49">
          <mxGeometry width="50" height="50" relative="1" as="geometry">
            <mxPoint x="549" y="150.5" as="sourcePoint" />
            <mxPoint x="599" y="100.5" as="targetPoint" />
          </mxGeometry>
        </mxCell>
        <mxCell id="8m5WmUQIKgXVRDmDLA1q-52" value="" style="endArrow=none;html=1;rounded=0;entryX=1;entryY=0.5;entryDx=0;entryDy=0;entryPerimeter=0;exitX=0;exitY=0.57;exitDx=0;exitDy=0;exitPerimeter=0;strokeWidth=1;" edge="1" parent="1" source="8m5WmUQIKgXVRDmDLA1q-47" target="8m5WmUQIKgXVRDmDLA1q-48">
          <mxGeometry width="50" height="50" relative="1" as="geometry">
            <mxPoint x="549" y="150.5" as="sourcePoint" />
            <mxPoint x="599" y="100.5" as="targetPoint" />
          </mxGeometry>
        </mxCell>
        <mxCell id="8m5WmUQIKgXVRDmDLA1q-53" value="" style="endArrow=none;html=1;rounded=0;exitX=1;exitY=0.57;exitDx=0;exitDy=0;exitPerimeter=0;entryX=1;entryY=0;entryDx=0;entryDy=0;entryPerimeter=0;strokeWidth=1;" edge="1" parent="1" source="8m5WmUQIKgXVRDmDLA1q-47" target="8m5WmUQIKgXVRDmDLA1q-45">
          <mxGeometry width="50" height="50" relative="1" as="geometry">
            <mxPoint x="549" y="150.5" as="sourcePoint" />
            <mxPoint x="599" y="100.5" as="targetPoint" />
          </mxGeometry>
        </mxCell>
        <mxCell id="8m5WmUQIKgXVRDmDLA1q-54" value="" style="endArrow=none;html=1;rounded=0;entryX=1;entryY=1;entryDx=0;entryDy=0;entryPerimeter=0;exitX=0.5;exitY=0;exitDx=0;exitDy=0;exitPerimeter=0;strokeWidth=1;" edge="1" parent="1" source="8m5WmUQIKgXVRDmDLA1q-46" target="8m5WmUQIKgXVRDmDLA1q-45">
          <mxGeometry width="50" height="50" relative="1" as="geometry">
            <mxPoint x="549" y="150.5" as="sourcePoint" />
            <mxPoint x="599" y="100.5" as="targetPoint" />
          </mxGeometry>
        </mxCell>
        <mxCell id="8m5WmUQIKgXVRDmDLA1q-55" value="" style="verticalLabelPosition=bottom;shadow=0;dashed=0;align=center;html=1;verticalAlign=top;shape=mxgraph.electrical.transistors.nmos;pointerEvents=1;strokeWidth=1;" vertex="1" parent="1">
          <mxGeometry x="480" y="188" width="30" height="44" as="geometry" />
        </mxCell>
        <mxCell id="8m5WmUQIKgXVRDmDLA1q-56" value="" style="pointerEvents=1;verticalLabelPosition=bottom;shadow=0;dashed=0;align=center;html=1;verticalAlign=top;shape=mxgraph.electrical.signal_sources.protective_earth;strokeWidth=1;" vertex="1" parent="1">
          <mxGeometry x="499" y="230" width="20" height="15" as="geometry" />
        </mxCell>
        <mxCell id="8m5WmUQIKgXVRDmDLA1q-57" value="" style="verticalLabelPosition=bottom;shadow=0;dashed=0;align=center;html=1;verticalAlign=top;shape=mxgraph.electrical.opto_electronics.led_2;pointerEvents=1;direction=south;strokeWidth=1;" vertex="1" parent="1">
          <mxGeometry x="500" y="167" width="21" height="32" as="geometry" />
        </mxCell>
        <mxCell id="8m5WmUQIKgXVRDmDLA1q-58" value="" style="pointerEvents=1;verticalLabelPosition=bottom;shadow=0;dashed=0;align=center;html=1;verticalAlign=top;shape=mxgraph.electrical.resistors.resistor_2;direction=south;strokeWidth=1;" vertex="1" parent="1">
          <mxGeometry x="504" y="120" width="10" height="50" as="geometry" />
        </mxCell>
        <mxCell id="8m5WmUQIKgXVRDmDLA1q-59" value="V&lt;sub&gt;dd&lt;/sub&gt;" style="verticalLabelPosition=top;verticalAlign=bottom;shape=mxgraph.electrical.signal_sources.vdd;shadow=0;dashed=0;align=center;strokeWidth=1;fontSize=24;html=1;flipV=1;noLabel=1;" vertex="1" parent="1">
          <mxGeometry x="501" y="111" width="16" height="12" as="geometry" />
        </mxCell>
        <mxCell id="8m5WmUQIKgXVRDmDLA1q-60" value="V&lt;sub&gt;dd2&lt;/sub&gt;" style="text;html=1;align=center;verticalAlign=middle;resizable=0;points=[];autosize=1;strokeColor=none;fillColor=none;strokeWidth=1;" vertex="1" parent="1">
          <mxGeometry x="487" y="86" width="44" height="30" as="geometry" />
        </mxCell>
        <mxCell id="8m5WmUQIKgXVRDmDLA1q-61" value="" style="endArrow=none;html=1;rounded=0;entryX=0.5;entryY=0;entryDx=0;entryDy=0;entryPerimeter=0;exitX=0;exitY=0.5;exitDx=0;exitDy=0;exitPerimeter=0;strokeWidth=1;" edge="1" parent="1" source="8m5WmUQIKgXVRDmDLA1q-58" target="8m5WmUQIKgXVRDmDLA1q-59">
          <mxGeometry width="50" height="50" relative="1" as="geometry">
            <mxPoint x="479" y="110.5" as="sourcePoint" />
            <mxPoint x="529" y="60.5" as="targetPoint" />
          </mxGeometry>
        </mxCell>
        <mxCell id="8m5WmUQIKgXVRDmDLA1q-62" value="" style="endArrow=none;html=1;rounded=0;entryX=1;entryY=0.5;entryDx=0;entryDy=0;entryPerimeter=0;exitX=0;exitY=0.57;exitDx=0;exitDy=0;exitPerimeter=0;strokeWidth=1;" edge="1" parent="1" source="8m5WmUQIKgXVRDmDLA1q-57" target="8m5WmUQIKgXVRDmDLA1q-58">
          <mxGeometry width="50" height="50" relative="1" as="geometry">
            <mxPoint x="479" y="110.5" as="sourcePoint" />
            <mxPoint x="529" y="60.5" as="targetPoint" />
          </mxGeometry>
        </mxCell>
        <mxCell id="8m5WmUQIKgXVRDmDLA1q-63" value="" style="endArrow=none;html=1;rounded=0;exitX=1;exitY=0.57;exitDx=0;exitDy=0;exitPerimeter=0;entryX=1;entryY=0;entryDx=0;entryDy=0;entryPerimeter=0;strokeWidth=1;" edge="1" parent="1" source="8m5WmUQIKgXVRDmDLA1q-57" target="8m5WmUQIKgXVRDmDLA1q-55">
          <mxGeometry width="50" height="50" relative="1" as="geometry">
            <mxPoint x="479" y="110.5" as="sourcePoint" />
            <mxPoint x="529" y="60.5" as="targetPoint" />
          </mxGeometry>
        </mxCell>
        <mxCell id="8m5WmUQIKgXVRDmDLA1q-64" value="" style="endArrow=none;html=1;rounded=0;entryX=1;entryY=1;entryDx=0;entryDy=0;entryPerimeter=0;exitX=0.5;exitY=0;exitDx=0;exitDy=0;exitPerimeter=0;strokeWidth=1;" edge="1" parent="1" source="8m5WmUQIKgXVRDmDLA1q-56" target="8m5WmUQIKgXVRDmDLA1q-55">
          <mxGeometry width="50" height="50" relative="1" as="geometry">
            <mxPoint x="479" y="110.5" as="sourcePoint" />
            <mxPoint x="529" y="60.5" as="targetPoint" />
          </mxGeometry>
        </mxCell>
        <mxCell id="8m5WmUQIKgXVRDmDLA1q-65" value="" style="endArrow=none;html=1;rounded=0;exitX=0;exitY=0.5;exitDx=0;exitDy=0;exitPerimeter=0;entryX=1;entryY=0.65;entryDx=0;entryDy=0;entryPerimeter=0;" edge="1" parent="1" source="8m5WmUQIKgXVRDmDLA1q-55" target="8m5WmUQIKgXVRDmDLA1q-1">
          <mxGeometry width="50" height="50" relative="1" as="geometry">
            <mxPoint x="460" y="160" as="sourcePoint" />
            <mxPoint x="520" y="30" as="targetPoint" />
          </mxGeometry>
        </mxCell>
        <mxCell id="8m5WmUQIKgXVRDmDLA1q-66" value="" style="endArrow=none;html=1;rounded=0;exitX=0;exitY=0.5;exitDx=0;exitDy=0;exitPerimeter=0;entryX=0.999;entryY=0.85;entryDx=0;entryDy=0;entryPerimeter=0;" edge="1" parent="1" source="8m5WmUQIKgXVRDmDLA1q-45" target="8m5WmUQIKgXVRDmDLA1q-1">
          <mxGeometry width="50" height="50" relative="1" as="geometry">
            <mxPoint x="470" y="80" as="sourcePoint" />
            <mxPoint x="450" y="250" as="targetPoint" />
          </mxGeometry>
        </mxCell>
        <mxCell id="8m5WmUQIKgXVRDmDLA1q-67" value="CL&lt;sub&gt;led&lt;/sub&gt;" style="text;html=1;align=center;verticalAlign=middle;resizable=0;points=[];autosize=1;strokeColor=none;fillColor=none;" vertex="1" parent="1">
          <mxGeometry x="440" y="225" width="50" height="30" as="geometry" />
        </mxCell>
        <mxCell id="8m5WmUQIKgXVRDmDLA1q-68" value="L&lt;sub&gt;led&lt;/sub&gt;" style="text;html=1;align=center;verticalAlign=middle;resizable=0;points=[];autosize=1;strokeColor=none;fillColor=none;" vertex="1" parent="1">
          <mxGeometry x="445" y="185" width="40" height="30" as="geometry" />
        </mxCell>
      </root>
    </mxGraphModel>
  </diagram>
</mxfile>
